<svg width="512" height="512" viewBox="0 0 512 512" fill="none" xmlns="http://www.w3.org/2000/svg">
<path d="M477.867 0H358.4C354.231 0.00122377 350.674 3.01395 349.986 7.12533L324.386 160.725C323.972 163.2 324.668 165.731 326.289 167.646C327.91 169.561 330.291 170.666 332.8 170.667H409.6V460.8H375.467C361.328 460.8 349.867 472.262 349.867 486.4V503.467C349.867 508.18 353.687 512 358.4 512H477.867C482.579 512 486.4 508.18 486.4 503.467V486.4C486.4 472.262 474.938 460.8 460.8 460.8H426.667V170.667H460.8V214.903C449.045 219.06 441.994 231.08 444.102 243.368C446.21 255.657 456.865 264.639 469.333 264.639C481.801 264.639 492.456 255.657 494.565 243.368C496.673 231.08 489.622 219.06 477.867 214.903V170.667H503.467C505.975 170.666 508.357 169.561 509.978 167.646C511.599 165.731 512.294 163.2 511.88 160.725L486.28 7.12533C485.593 3.01395 482.035 0.00122377 477.867 0ZM469.333 486.4V494.933H366.933V486.4C366.933 481.687 370.754 477.867 375.467 477.867H460.8C465.513 477.867 469.333 481.687 469.333 486.4ZM469.333 247.467C464.62 247.467 460.8 243.646 460.8 238.933C460.8 234.221 464.62 230.4 469.333 230.4C474.046 230.4 477.867 234.221 477.867 238.933C477.867 243.646 474.046 247.467 469.333 247.467ZM342.878 153.6L365.628 17.0667H470.639L493.389 153.6H342.878Z" fill="#5C524B"/>
<path d="M361.566 332.194C364.692 330.949 366.794 327.984 366.934 324.622C367.074 321.26 365.226 318.13 362.214 316.629C348.703 310.827 333.448 310.587 319.761 315.964C317.978 316.638 316.262 317.542 314.53 318.396C312.04 278.01 318.03 237.551 332.117 199.62C333.489 196.412 332.769 192.692 330.3 190.227C327.831 187.762 324.111 187.048 320.905 188.425C307.372 195.781 295.887 206.395 287.488 219.307C283.243 210.477 274.33 204.845 264.533 204.8H237.363C238.374 202.067 238.905 199.18 238.933 196.267V25.6C238.933 11.4615 227.472 0 213.333 0H42.6667C28.5282 0 17.0667 11.4615 17.0667 25.6V196.267C17.076 199.532 17.7134 202.765 18.944 205.79C7.80619 208.789 0.0493416 218.866 0 230.4V486.4C0 500.539 11.4615 512 25.6 512H307.2C311.256 512.001 314.752 509.147 315.563 505.173L331.605 424.96C337.532 422.137 341.315 416.165 341.333 409.6V392.533C341.306 386.122 337.678 380.27 331.947 377.395C328.986 345.958 360.192 332.749 361.566 332.194ZM325.47 332.058C328.417 330.9 331.486 330.078 334.618 329.609C321.442 341.135 314.14 357.97 314.726 375.467H286.174C297.088 352.828 310.528 337.92 325.47 332.058ZM110.933 221.867H181.12C185.634 227.84 190.848 235.238 196.267 243.908V297.54L159.07 266.513C155.903 263.868 151.297 263.868 148.13 266.513L110.933 297.515V221.867ZM207.59 220.663C230.327 233.68 248.051 253.933 257.937 278.195C253.538 291.111 249.883 304.268 246.989 317.602C236.831 280.674 220.005 245.915 197.342 215.04C200.644 216.695 204.083 218.547 207.59 220.663ZM213.333 275.063C219.108 287.21 223.996 299.758 227.959 312.61C223.309 309.208 218.256 306.393 212.915 304.23C213.142 303.563 213.282 302.869 213.333 302.165V275.063ZM235.878 346.743C237.022 353.801 237.833 360.636 238.285 367.761C238.507 370.185 238.669 372.745 238.78 375.501H220.006C212.075 350.156 194.341 329.034 170.752 316.834C174.954 316.124 179.206 315.756 183.467 315.733C205.344 315.486 225.545 327.425 235.878 346.709V346.743ZM204.8 392.533H324.267V409.6H204.8V392.533ZM306.901 222.319C297.923 257.243 295.036 293.455 298.368 329.361C284.867 342.321 274.332 358.049 267.486 375.467H255.846C255.77 373.291 255.633 371.311 255.497 369.365C255.688 368.902 255.836 368.422 255.94 367.932C265.626 285.585 289.374 243.14 306.901 222.319ZM273.067 230.4V242.679C270.831 246.958 268.618 251.568 266.428 256.512C258.993 243.452 249.409 231.74 238.08 221.867H264.533C269.246 221.867 273.067 225.687 273.067 230.4ZM162.133 17.0667V78.7968L132.395 60.9536C129.69 59.3287 126.31 59.3287 123.605 60.9536L93.8667 78.7968V17.0667H162.133ZM34.1333 25.6C34.1333 20.8872 37.9538 17.0667 42.6667 17.0667H76.8V93.8667C76.8006 96.9416 78.4555 99.7784 81.1319 101.292C83.8083 102.806 87.0922 102.763 89.728 101.18L128 78.2165L166.272 101.18C168.908 102.763 172.192 102.806 174.868 101.292C177.545 99.7784 179.199 96.9416 179.2 93.8667V17.0667H213.333C218.046 17.0667 221.867 20.8872 221.867 25.6V196.267C221.841 200.709 218.389 204.377 213.956 204.672C200.997 197.063 186.985 191.409 172.373 187.895C168.69 187.173 164.967 188.942 163.201 192.254C161.435 195.567 162.041 199.644 164.693 202.3C164.693 202.3 165.547 203.153 167.057 204.8H42.6667C37.9538 204.8 34.1333 200.98 34.1333 196.267V25.6ZM17.0667 486.4V230.4C17.0667 225.687 20.8872 221.867 25.6 221.867H93.8667V315.733C93.8652 319.047 95.7818 322.062 98.7829 323.466C101.784 324.871 105.327 324.411 107.87 322.287L153.6 284.16L172.032 299.52C161.404 300.801 151.03 303.678 141.261 308.053C138.113 309.628 136.255 312.973 136.582 316.477C136.908 319.981 139.353 322.926 142.737 323.891C169.749 330.503 191.865 349.826 202.044 375.706C193.797 377.055 187.741 384.177 187.733 392.533V409.6C187.752 416.165 191.534 422.137 197.461 424.96L211.456 494.933H25.6C20.8872 494.933 17.0667 491.113 17.0667 486.4ZM300.211 494.933H228.855L215.202 426.667H313.856L300.211 494.933Z" fill="#5C524B"/>
<path d="M51.2001 375.467H119.467C124.18 375.467 128 371.646 128 366.933C128 362.22 124.18 358.4 119.467 358.4H51.2001C46.4873 358.4 42.6667 362.22 42.6667 366.933C42.6667 371.646 46.4873 375.467 51.2001 375.467Z" fill="#5C524B"/>
<path d="M145.067 392.533H51.2001C46.4873 392.533 42.6667 396.354 42.6667 401.067C42.6667 405.779 46.4873 409.6 51.2001 409.6H145.067C149.78 409.6 153.6 405.779 153.6 401.067C153.6 396.354 149.78 392.533 145.067 392.533Z" fill="#5C524B"/>
<path d="M119.467 426.667H51.2001C46.4873 426.667 42.6667 430.487 42.6667 435.2C42.6667 439.913 46.4873 443.733 51.2001 443.733H119.467C124.18 443.733 128 439.913 128 435.2C128 430.487 124.18 426.667 119.467 426.667Z" fill="#5C524B"/>
<path d="M68.2667 145.067H119.467C124.18 145.067 128 141.246 128 136.533C128 131.821 124.18 128 119.467 128H68.2667C63.5539 128 59.7334 131.821 59.7334 136.533C59.7334 141.246 63.5539 145.067 68.2667 145.067Z" fill="#5C524B"/>
<path d="M68.2667 179.2H119.467C124.18 179.2 128 175.379 128 170.667C128 165.954 124.18 162.133 119.467 162.133H68.2667C63.5539 162.133 59.7334 165.954 59.7334 170.667C59.7334 175.379 63.5539 179.2 68.2667 179.2Z" fill="#5C524B"/>
</svg>
