<svg width="512" height="512" viewBox="0 0 512 512" fill="none" xmlns="http://www.w3.org/2000/svg">
<g clip-path="url(#clip0)">
<path d="M187.733 285.866C183.02 285.866 179.2 289.687 179.2 294.4V302.933C179.2 307.646 183.02 311.466 187.733 311.466C192.446 311.466 196.267 307.646 196.267 302.933V294.4C196.267 289.687 192.446 285.866 187.733 285.866Z" fill="#5C524B"/>
<path d="M469.333 302.933V294.4C469.333 289.687 465.513 285.866 460.8 285.866C456.087 285.866 452.267 289.687 452.267 294.4V302.933C452.267 307.646 456.087 311.466 460.8 311.466C465.513 311.466 469.333 307.646 469.333 302.933Z" fill="#5C524B"/>
<path d="M256 234.667C260.713 234.667 264.533 230.846 264.533 226.133V217.6C264.533 212.887 260.713 209.067 256 209.067C251.287 209.067 247.467 212.887 247.467 217.6V226.133C247.467 230.846 251.287 234.667 256 234.667Z" fill="#5C524B"/>
<path d="M392.533 234.667C397.246 234.667 401.067 230.846 401.067 226.133V217.6C401.067 212.887 397.246 209.067 392.533 209.067C387.821 209.067 384 212.887 384 217.6V226.133C384 230.846 387.821 234.667 392.533 234.667Z" fill="#5C524B"/>
<path d="M503.467 422.4H477.867V342.707C501.51 334.386 515.639 310.158 511.241 285.483C507.691 265.007 492.07 248.735 471.757 244.352C470.955 244.181 470.144 244.113 469.333 243.976V217.6C469.291 179.915 438.752 149.376 401.067 149.333H247.467C209.782 149.376 179.242 179.915 179.2 217.6V243.993C157.68 247.537 140.822 264.419 137.31 285.943C137.045 285.943 136.798 285.867 136.533 285.867H128V268.8C128 259.374 120.359 251.733 110.933 251.733H85.3333V192H102.4V217.6C102.4 222.313 106.221 226.133 110.933 226.133C115.646 226.133 119.467 222.313 119.467 217.6V192H131.499C135.261 191.999 138.832 190.342 141.263 187.47C143.694 184.599 144.739 180.803 144.119 177.092L128.478 83.2255C127.448 77.0567 122.111 72.5354 115.857 72.5332H37.7429C31.4888 72.5354 26.152 77.0567 25.1221 83.2255L9.48053 177.092C8.86099 180.803 9.90554 184.599 12.3366 187.47C14.7676 190.342 18.3389 191.999 22.1013 192H68.2667V251.733H42.6667C33.241 251.733 25.6 259.374 25.6 268.8V285.867H17.0667C7.64101 285.867 0 293.508 0 302.933V422.4C0 431.826 7.64101 439.467 17.0667 439.467H264.533C269.246 439.467 273.067 435.646 273.067 430.933C273.067 426.22 269.246 422.4 264.533 422.4H238.933V405.333H409.6V422.4H384C379.287 422.4 375.467 426.22 375.467 430.933C375.467 435.646 379.287 439.467 384 439.467H503.467C508.18 439.467 512 435.646 512 430.933C512 426.22 508.18 422.4 503.467 422.4ZM41.3611 89.5999H112.239L126.455 174.933H27.1445L41.3611 89.5999ZM247.467 166.4H315.733V234.667C315.733 239.379 319.554 243.2 324.267 243.2C328.98 243.2 332.8 239.379 332.8 234.667V166.4H401.067C429.332 166.428 452.238 189.335 452.267 217.6V244.002C427.616 248.076 409.55 269.415 409.6 294.4V302.933H358.4C344.918 302.971 332.253 309.402 324.267 320.264C316.281 309.402 303.616 302.971 290.133 302.933H238.933V296.252C239.149 270.824 221.22 248.85 196.267 243.959V217.6C196.295 189.335 219.201 166.428 247.467 166.4ZM238.933 354.133V320H290.133C304.272 320 315.733 331.461 315.733 345.6V354.133H238.933ZM332.8 345.6C332.8 331.461 344.262 320 358.4 320H409.6V354.133H332.8V345.6ZM42.6667 268.8H110.933V285.867H42.6667V268.8ZM59.7333 302.933H93.8667V329.651L81.536 321.433C78.6685 319.52 74.9315 319.52 72.064 321.433L59.7333 329.651V302.933ZM128 422.4H17.0667V302.933H42.6667V345.6C42.6662 348.748 44.3988 351.64 47.1743 353.125C49.9498 354.61 53.3175 354.447 55.936 352.7L76.8 338.773L97.664 352.683C100.28 354.428 103.644 354.593 106.418 353.112C109.193 351.631 110.928 348.745 110.933 345.6V302.933H136.533V422.4H128ZM153.6 422.4V332.348C158.548 336.892 164.349 340.407 170.667 342.69V422.4H153.6ZM187.733 422.4V336.213C187.738 332.154 184.884 328.654 180.907 327.842C168.313 325.262 158.238 315.825 154.839 303.427C151.441 291.03 155.296 277.774 164.813 269.133C171.068 263.402 179.251 260.237 187.733 260.267C188.873 260.265 190.013 260.321 191.147 260.437C209.017 262.823 222.242 278.253 221.867 296.277V422.4H187.733ZM238.933 388.267V371.2H409.6V388.267H238.933ZM426.667 422.4L426.667 294.4C426.654 284.108 431.3 274.364 439.305 267.895C445.342 262.942 452.914 260.245 460.723 260.267H460.8C463.306 260.273 465.805 260.536 468.258 261.052C484.012 264.53 495.178 278.564 495.03 294.696C494.881 310.828 483.458 324.654 467.644 327.842C463.667 328.654 460.812 332.154 460.817 336.213V422.4H426.667Z" fill="#5C524B"/>
</g>
<defs>
<clipPath id="clip0">
<rect width="512" height="512" fill="white"/>
</clipPath>
</defs>
</svg>
