<svg width="512" height="512" viewBox="0 0 512 512" fill="none" xmlns="http://www.w3.org/2000/svg">
<g clip-path="url(#clip0)">
<path d="M17.8089 353.34C18.8905 355.768 21.0423 357.554 23.6287 358.17L68.2665 368.794V454.059C68.2464 461.97 73.6816 468.851 81.3823 470.664L254.029 511.77C255.325 512.077 256.675 512.077 257.971 511.77L430.626 470.664C438.323 468.848 443.754 461.967 443.733 454.059V368.794L488.371 358.17C490.959 357.556 493.113 355.77 494.196 353.34C495.279 350.91 495.166 348.114 493.892 345.779L444.919 256L493.892 166.221C495.166 163.886 495.279 161.09 494.196 158.66C493.113 156.23 490.959 154.444 488.371 153.83L339.516 118.366L289.399 9.90715C286.173 2.9578 278.719 -0.999025 271.155 0.221815L149.214 20.1301C141.659 21.3864 135.855 27.5039 134.997 35.1146L124.629 129.835L23.6287 153.83C21.0404 154.444 18.8865 156.23 17.8037 158.66C16.721 161.09 16.8334 163.886 18.1076 166.221L67.0804 256L18.1076 345.779C16.8351 348.115 16.7247 350.911 17.8089 353.34ZM85.3332 372.855L202.829 400.836C203.475 400.989 204.136 401.066 204.8 401.067C207.923 401.067 210.796 399.362 212.292 396.621L247.467 332.134V492.663L221.867 486.571V452.267C221.867 447.554 218.046 443.733 213.333 443.733C208.62 443.733 204.8 447.554 204.8 452.267V482.509L187.733 478.438V460.8C187.733 456.087 183.913 452.267 179.2 452.267C174.487 452.267 170.667 456.087 170.667 460.8V474.377L153.6 470.315V435.2C153.6 430.487 149.779 426.667 145.067 426.667C140.354 426.667 136.533 430.487 136.533 435.2V466.253L119.467 462.182V443.733C119.467 439.02 115.646 435.2 110.933 435.2C106.22 435.2 102.4 439.02 102.4 443.733V458.121L85.3332 454.059V372.855ZM145.425 248.448C146.448 253.943 147.918 259.346 149.82 264.602L113.689 256L145.425 248.448ZM170.846 269.611C166.32 261.303 163.222 252.295 161.681 242.961C161.374 241.05 161.152 239.138 160.99 237.21C159.446 220.766 162.706 204.229 170.376 189.602L193.664 185.805C186.008 203.018 183.992 222.212 187.904 240.64C188.715 244.614 192.211 247.467 196.267 247.467C196.839 247.469 197.411 247.415 197.973 247.305C202.594 246.382 205.592 241.89 204.672 237.269C200.481 218.29 204.26 198.422 215.125 182.306L305.015 167.629C318.359 180.388 327.202 197.133 330.214 215.347C331.158 221.159 331.527 227.05 331.315 232.934C330.602 247.994 325.889 262.592 317.662 275.226L256 289.894L170.846 269.611ZM347.307 243.857L398.361 256L339.891 269.926C343.52 261.608 346.014 252.84 347.307 243.857ZM426.667 454.059L409.6 458.129V443.733C409.6 439.02 405.779 435.2 401.067 435.2C396.354 435.2 392.533 439.02 392.533 443.733V462.191L375.467 466.253V435.2C375.467 430.487 371.646 426.667 366.933 426.667C362.22 426.667 358.4 430.487 358.4 435.2V470.315L341.333 474.377V460.8C341.333 456.087 337.513 452.267 332.8 452.267C328.087 452.267 324.267 456.087 324.267 460.8V478.447L307.2 482.509V452.267C307.2 447.554 303.379 443.733 298.667 443.733C293.954 443.733 290.133 447.554 290.133 452.267V486.571L264.533 492.663V332.134L299.708 396.621C301.203 399.362 304.077 401.067 307.2 401.067C307.864 401.065 308.525 400.988 309.171 400.836L426.667 372.855V454.059ZM311.569 382.72L268.8 304.384L430.797 265.813L473.6 344.149L311.569 382.72ZM473.6 167.842L430.831 246.187L348.237 226.56C348.128 221.905 347.72 217.262 347.016 212.659C344.1 194.925 336.579 178.268 325.205 164.352L336.094 162.577C341.358 161.717 345.917 158.446 348.417 153.735C350.918 149.023 351.072 143.414 348.834 138.573L348.612 138.103L473.6 167.842ZM151.97 36.9749L273.92 17.0666L333.363 145.707L136.533 177.835L151.97 36.9749ZM122.658 147.806L119.569 175.966C119.044 180.777 120.586 185.584 123.811 189.192C127.037 192.8 131.643 194.869 136.482 194.884C137.42 194.884 138.356 194.807 139.281 194.654L150.169 192.879C145.529 205.137 143.292 218.175 143.582 231.279L81.1689 246.187L38.4425 167.851L122.658 147.806ZM81.1689 265.813L243.2 304.384L200.473 382.72L38.4425 344.149L81.1689 265.813Z" fill="#5C524B"/>
</g>
<defs>
<clipPath id="clip0">
<rect width="512" height="512" fill="white"/>
</clipPath>
</defs>
</svg>
