<svg width="512" height="512" viewBox="0 0 512 512" fill="none" xmlns="http://www.w3.org/2000/svg">
<g clip-path="url(#clip0)">
<path d="M504.986 289.212L425.728 231.578C448.973 214.733 456.448 178.253 452.395 155.358C450.718 141.551 442.256 129.493 429.841 123.222C416.414 117.673 401.165 118.715 388.617 126.038L209.673 1.52789C206.744 -0.509298 202.856 -0.509298 199.927 1.52789L3.6608 138.061C1.36727 139.656 -0.000139508 142.273 1.06755e-08 145.067V196.267C0.00301622 199.443 1.76941 202.354 4.58478 203.824C7.40015 205.293 10.7987 205.078 13.4059 203.264L25.6 194.782V401.067C25.6 405.78 29.4205 409.6 34.1333 409.6H145.067C145.117 410.01 145.197 410.414 145.306 410.812C145.404 411.992 145.83 413.121 146.534 414.072C146.67 414.395 146.827 414.708 147.004 415.011C147.089 415.113 147.226 415.156 147.311 415.258C147.396 415.36 147.456 415.523 147.567 415.634C148.421 416.201 149.274 416.77 150.127 417.34C151.216 417.845 152.4 418.115 153.6 418.134H206.933C213.027 418.131 218.657 414.878 221.705 409.6H307.2V494.934C307.2 504.359 314.841 512 324.267 512H494.933C504.359 512 512 504.359 512 494.934V303.019C511.99 297.563 509.386 292.438 504.986 289.212ZM422.647 138.701C429.977 142.663 434.837 150.031 435.593 158.328C438.24 176.627 433.799 195.247 423.177 210.381C422.31 199.388 419.088 188.71 413.73 179.072C411.777 175.548 409.542 172.186 407.049 169.02C400.975 161.444 393.551 155.059 385.152 150.187C388.075 146.882 391.495 144.052 395.29 141.799C403.378 136.421 413.561 135.268 422.647 138.701ZM352.742 198.375C354.267 196.826 356.364 195.977 358.537 196.028C358.903 196.028 359.27 196.028 359.646 196.088C361.547 196.177 363.352 196.953 364.723 198.272C365.836 199.436 366.601 200.887 366.933 202.462V206.797C366.563 208.159 365.853 209.404 364.868 210.415C363.266 212.033 361.083 212.944 358.805 212.944C356.528 212.944 354.345 212.033 352.742 210.415C351.12 208.824 350.207 206.646 350.207 204.374C350.207 202.101 351.12 199.924 352.742 198.332V198.375ZM17.0667 149.521L204.8 18.9615L374.34 136.901C372.941 138.317 371.456 139.606 370.176 141.167C369.681 141.782 369.263 142.473 368.785 143.104C358.861 140.068 348.422 139.093 338.108 140.237C337.408 140.314 336.717 140.459 336.017 140.561L209.673 52.7279C206.744 50.6907 202.856 50.6907 199.927 52.7279L17.0667 179.917V149.521ZM42.6667 221.867H85.3333C90.0462 221.867 93.8667 225.688 93.8667 230.4V315.734C93.8667 320.447 90.0462 324.267 85.3333 324.267H42.6667V221.867ZM42.6667 341.334H85.3333C99.4718 341.334 110.933 329.872 110.933 315.734V230.4C110.933 216.262 99.4718 204.8 85.3333 204.8H42.6667V182.912L204.8 70.1274L314.88 146.697C289.827 157.971 272.805 181.883 270.353 209.246C266.125 206.354 261.123 204.804 256 204.8H153.6C139.462 204.8 128 216.262 128 230.4V392.534H42.6667V341.334ZM157.269 347.606L148.301 392.534H145.067V230.4C145.067 225.688 148.887 221.867 153.6 221.867H256C260.713 221.867 264.533 225.688 264.533 230.4V238.379L159.573 343.237C158.389 344.432 157.587 345.953 157.269 347.606ZM174.199 401.067L262.204 313.063C265.536 309.729 265.534 304.324 262.199 300.992C258.865 297.66 253.461 297.662 250.129 300.997L167.484 383.651L173.5 353.477L279.04 247.971L279.083 247.928L286.831 240.188C289 238.019 289.837 234.852 289.024 231.894C283.564 211.733 289.078 190.185 303.551 175.125C318.024 160.065 339.335 153.699 359.697 158.353C358.844 160.308 357.922 162.262 357.214 164.216C355.36 169.252 353.91 174.429 352.879 179.695C348.22 180.71 343.946 183.031 340.557 186.385C335.77 191.188 333.089 197.696 333.105 204.477C333.121 211.257 335.833 217.753 340.642 222.533C345.435 227.316 351.936 229.993 358.707 229.974C365.503 229.981 372.026 227.303 376.858 222.524C380.425 218.959 382.847 214.41 383.812 209.46C383.812 209.28 383.881 209.093 383.898 208.905C384.536 205.935 384.536 202.864 383.898 199.894C383.012 194.716 380.533 189.943 376.806 186.24C374.799 184.302 372.494 182.697 369.98 181.487C370.825 177.645 371.931 173.864 373.291 170.172C373.999 168.227 374.835 166.298 375.74 164.387C382.664 168.26 388.773 173.439 393.728 179.636C395.637 182.082 397.349 184.676 398.848 187.392C404.79 198.222 407.229 210.627 405.828 222.9C405.405 223.07 404.997 223.276 404.608 223.514L314.308 289.144C312.198 290.653 310.473 292.638 309.274 294.938L296.311 297.558C289.537 298.885 284.229 304.163 282.863 310.93L279.04 329.976L259.968 333.739C253.234 335.121 247.987 340.409 246.656 347.154L242.893 366.157L223.787 369.929C217.058 371.313 211.816 376.596 210.483 383.335L206.933 401.067H174.199ZM226.031 392.534L227.191 386.654L246.238 382.9C253.026 381.61 258.328 376.287 259.593 369.494L263.347 350.49L264.533 350.243V392.534H226.031ZM281.6 392.534V346.872L282.453 346.71C289.249 345.367 294.56 340.05 295.893 333.253L299.708 314.283L307.2 312.764V392.534H281.6ZM494.933 303.019V494.934H324.267V303.002L409.6 240.948L494.933 302.994V303.019Z" fill="#5C524B"/>
<path d="M403.567 318.234L360.9 360.9L343.834 377.967C340.6 381.315 340.646 386.638 343.938 389.929C347.229 393.221 352.551 393.267 355.9 390.033L358.4 387.533V452.267C358.4 456.979 362.221 460.8 366.933 460.8H452.267C456.98 460.8 460.8 456.979 460.8 452.267V387.533L463.3 390.033C466.649 393.267 471.971 393.221 475.263 389.929C478.554 386.638 478.6 381.315 475.366 377.967L458.3 360.9L415.633 318.234C412.301 314.902 406.899 314.902 403.567 318.234ZM443.733 443.733H418.133V426.667C418.133 421.954 414.313 418.133 409.6 418.133C404.887 418.133 401.067 421.954 401.067 426.667V443.733H375.467V370.466L409.6 336.333L443.733 370.466V443.733Z" fill="#5C524B"/>
</g>
<defs>
<clipPath id="clip0">
<rect width="512" height="512" fill="white"/>
</clipPath>
</defs>
</svg>
